<svg width="16" height="14" viewBox="0 0 16 14" fill="none" xmlns="http://www.w3.org/2000/svg">
<path d="M5.96561 11.5976C5.88494 11.4357 5.7444 11.4193 5.68752 11.4193C5.63065 11.4193 5.4901 11.4354 5.41354 11.5886L5.20381 12.008C5.02963 12.3575 4.51939 12.3189 4.39771 11.9509L3.93752 10.5708L3.6474 11.4425C3.48634 11.9254 3.03544 12.25 2.5263 12.25H2.18751C1.94579 12.25 1.75001 12.0542 1.75001 11.8125C1.75001 11.5708 1.94579 11.375 2.18751 11.375H2.5263C2.65837 11.375 2.7754 11.2908 2.81724 11.1655L3.31462 9.67148C3.40486 9.40324 3.65478 9.22277 3.93752 9.22277C4.22025 9.22277 4.47017 9.40297 4.56013 9.67148L4.93967 10.8101C5.47971 10.3674 6.41788 10.5448 6.74436 11.1973C6.79604 11.3006 6.89448 11.36 7.0003 11.3684V9.12297L10.5003 5.64785V4.375H6.78128C6.42034 4.375 6.12502 4.07969 6.12502 3.71875V0H0.656253C0.292579 0 0 0.292578 0 0.65625V13.3438C0 13.7074 0.292579 14 0.656253 14H9.84379C10.2075 14 10.5 13.7074 10.5 13.3438V12.25L7.00003 12.247C6.55924 12.2385 6.16385 11.9932 5.96561 11.5976ZM10.5 3.3332C10.5 3.16094 10.4317 2.99414 10.3086 2.87109L7.63167 0.191406C7.50862 0.0683594 7.34183 0 7.16682 0H7.00003V3.5H10.5V3.3332ZM7.87503 9.48719V11.375H9.76148L14.1824 6.92398L12.3263 5.06789L7.87503 9.48719ZM15.5461 4.57543L14.6746 3.70398C14.4028 3.43219 13.9618 3.43219 13.69 3.70398L12.9449 4.4491L14.801 6.3052L15.5461 5.56008C15.8181 5.28828 15.8181 4.84723 15.5461 4.57543Z" fill="#E0E3E8"/>
</svg>
