<svg width="14" height="14" viewBox="0 0 14 14" fill="none" xmlns="http://www.w3.org/2000/svg">
<g clip-path="url(#clip0)">
<path d="M3.73516 3.79511C3.46053 3.87273 3.20906 4.01633 3.00265 4.2134C2.79623 4.41048 2.64115 4.65503 2.5509 4.92577L0 12.5782L0.40168 12.9799L4.50625 8.8753C4.42449 8.70413 4.375 8.51491 4.375 8.31257C4.375 7.58769 4.96262 7.00007 5.6875 7.00007C6.41238 7.00007 7 7.58769 7 8.31257C7 9.03745 6.41238 9.62507 5.6875 9.62507C5.48516 9.62507 5.29594 9.57558 5.12477 9.49382L1.0202 13.5984L1.42188 14.0001L9.0743 11.4492C9.34503 11.3589 9.58959 11.2038 9.78666 10.9974C9.98374 10.791 10.1273 10.5395 10.205 10.2649L11.375 6.12507L7.875 2.62507L3.73516 3.79511ZM13.6155 2.02815L11.9719 0.384521C11.4592 -0.128174 10.6277 -0.128174 10.115 0.384521L8.56871 1.93081L12.0693 5.43136L13.6155 3.88507C14.1282 3.37237 14.1282 2.54112 13.6155 2.02815V2.02815Z" fill="#97A2B2"/>
</g>
<defs>
<clipPath id="clip0">
<rect width="14" height="14" fill="white"/>
</clipPath>
</defs>
</svg>
